<svg width="800" height="800" viewBox="0 0 800 800" fill="none" xmlns="http://www.w3.org/2000/svg">
<path fill-rule="evenodd" clip-rule="evenodd" d="M566.067 299.93C584.664 258.09 541.91 215.337 500.07 233.933L333.394 308.011C322.083 313.038 313.039 322.083 308.011 333.393L233.933 500.07C215.337 541.91 258.09 584.663 299.931 566.067L466.607 491.99C477.917 486.963 486.964 477.917 491.99 466.607L566.067 299.93ZM366.327 366.327L487.547 312.453L433.674 433.673L312.453 487.547L366.327 366.327Z" fill="white"/>
<path fill-rule="evenodd" clip-rule="evenodd" d="M400 766.667C602.503 766.667 766.666 602.503 766.666 400C766.666 197.496 602.503 33.3333 400 33.3333C197.495 33.3333 33.333 197.496 33.333 400C33.333 602.503 197.495 766.667 400 766.667ZM400 699.563C234.555 699.563 100.435 565.443 100.435 400C100.435 234.555 234.555 100.435 400 100.435C565.443 100.435 699.563 234.555 699.563 400C699.563 565.443 565.443 699.563 400 699.563Z" fill="white"/>
</svg>
