<svg width="800" height="800" viewBox="0 0 800 800" fill="none" xmlns="http://www.w3.org/2000/svg">
<path d="M300 575C286.193 575 275 586.193 275 600C275 613.807 286.193 625 300 625H500C513.807 625 525 613.807 525 600C525 586.193 513.807 575 500 575H300Z" fill="white"/>
<path fill-rule="evenodd" clip-rule="evenodd" d="M400 41.6667C376.397 41.6667 354.95 48.4274 331.685 59.7414C309.195 70.6784 283.214 86.8031 250.762 106.944L181.876 149.697C151.17 168.754 126.582 184.013 107.63 198.527C88.0053 213.556 72.932 228.863 62.044 248.754C51.1787 268.604 46.286 289.725 43.94 314.69C41.6667 338.883 41.6667 368.47 41.667 405.573V459.33C41.6667 522.79 41.6663 572.887 46.757 612.053C51.9793 652.233 62.9523 684.67 87.7457 710.313C112.653 736.08 144.349 747.59 183.587 753.047C221.617 758.333 270.186 758.333 331.395 758.333H468.604C529.814 758.333 578.384 758.333 616.414 753.047C655.65 747.59 687.347 736.08 712.254 710.313C737.047 684.67 748.02 652.233 753.244 612.053C758.334 572.887 758.334 522.793 758.334 459.33V405.573C758.334 368.47 758.334 338.883 756.06 314.69C753.714 289.725 748.82 268.604 737.957 248.754C727.07 228.863 711.997 213.556 692.37 198.527C673.42 184.013 648.83 168.754 618.124 149.697L549.237 106.944C516.787 86.8031 490.804 70.6781 468.314 59.7414C445.05 48.4274 423.604 41.6667 400 41.6667ZM275.985 150.137C309.843 129.124 333.65 114.384 353.55 104.707C372.94 95.2777 386.674 91.6667 400 91.6667C413.327 91.6667 427.06 95.2777 446.45 104.706C466.35 114.384 490.157 129.124 524.017 150.137L590.684 191.512C622.71 211.39 645.197 225.378 661.97 238.223C678.29 250.721 687.677 261.035 694.097 272.762C700.54 284.53 704.3 298.288 706.28 319.368C708.307 340.953 708.334 368.193 708.334 406.797V457.5C708.334 523.197 708.284 570.04 703.66 605.61C699.12 640.543 690.567 660.813 676.307 675.563C662.164 690.193 642.904 698.88 609.527 703.523C575.34 708.277 530.25 708.333 466.667 708.333H333.334C269.749 708.333 224.661 708.277 190.474 703.523C157.096 698.88 137.838 690.193 123.693 675.563C109.434 660.813 100.881 640.543 96.34 605.61C91.7167 570.04 91.667 523.197 91.667 457.5V406.797C91.667 368.193 91.6923 340.953 93.7207 319.368C95.7013 298.288 99.462 284.53 105.903 272.762C112.322 261.035 121.711 250.721 138.031 238.223C154.804 225.378 177.29 211.39 209.318 191.512L275.985 150.137Z" fill="white"/>
</svg>
