<svg width="800" height="800" viewBox="0 0 800 800" fill="none" xmlns="http://www.w3.org/2000/svg">
<path d="M737.5 25H262.5C252.554 25 243.016 28.9509 235.983 35.9835C228.951 43.0161 225 52.5544 225 62.5V537.5C225 547.446 228.951 556.984 235.983 564.016C243.016 571.049 252.554 575 262.5 575H737.5C747.446 575 756.984 571.049 764.016 564.016C771.049 556.984 775 547.446 775 537.5V62.5C775 52.5544 771.049 43.0161 764.016 35.9835C756.984 28.9509 747.446 25 737.5 25ZM725 525H275V75H725V525Z" fill="white"/>
<path d="M175 625V125H125V637.5C125 647.446 128.951 656.984 135.983 664.016C143.016 671.049 152.554 675 162.5 675H675V625H175Z" fill="white"/>
<path d="M75 725V225H25V737.5C25 747.446 28.9509 756.984 35.9835 764.016C43.0161 771.049 52.5544 775 62.5 775H575V725H75Z" fill="white"/>
</svg>
